<?xml version="1.0" encoding="utf-8"?>
<!-- Generator: Adobe Illustrator 27.7.0, SVG Export Plug-In . SVG Version: 6.00 Build 0)  -->
<svg version="1.1" id="Layer_1" xmlns="http://www.w3.org/2000/svg" xmlns:xlink="http://www.w3.org/1999/xlink" x="0px" y="0px"
	 viewBox="0 0 2532 709.5" style="enable-background:new 0 0 2532 709.5;" xml:space="preserve">
<style type="text/css">
	.st0{fill:#001A4B;}
	.st1{fill:#011B4B;}
	.st2{fill:#011B4C;}
	.st3{fill:#223963;}
	.st4{fill:#E0E3EA;}
	.st5{fill:#F0F2F4;}
</style>
<g>
	<path class="st0" d="M384.8,709.3c-14.6,0-29.2,0.6-43.7-0.2c-13.8-0.8-27.6-2.7-41.3-4.8c-11.8-1.8-23.6-3.8-35-7.1
		c-37.3-10.9-72.6-26.3-104.9-48.1C95.6,605.4,49.7,547.2,22.2,474.5c-7.7-20.4-13.1-41.3-17-62.7c-2.2-12.1-3-24.4-4-36.6
		c-0.8-9.4-1.5-18.9-1-28.2c0.7-13.2,1.9-26.5,4-39.6c2.4-15.3,4.8-30.7,9.1-45.6c12.1-42.1,30.9-81.2,57.2-116.5
		C114.8,86,172,43.8,242.1,19.3c20.2-7.1,40.8-13,62.3-15c19.7-1.8,39.5-4.3,59.2-4.3c23.8-0.1,47.5,2.6,70.8,8
		c121.7,28.1,206.9,100,256.8,214c8.9,20.3,15.1,41.6,19.2,63.3c3.1,16.5,4.6,33.3,6.1,50c1,10.7,1.6,21.5,1,32.2
		c-0.9,14.2-2.7,28.3-5,42.3c-2.2,13.4-4.7,26.8-8.3,39.8c-7.5,26.8-18,52.5-31.9,76.6c-47,81.3-114.9,137.2-204.4,166
		c-18.9,6.1-38.5,9.7-58,13.8c-8.2,1.7-16.7,1.5-25.1,2.2C384.8,708.6,384.8,709,384.8,709.3z M265.2,587.6c0.5,0,1,0,1.5-0.2
		c69.5-25.4,139-50.9,208.5-76.3c9.1-3.3,18.1-6.7,26.8-9.9c0-118.8,0-236.9,0-355.5c-118.9,42.7-237.2,85.3-355.2,127.7
		c0,29.5,0,58.3,0,87.5c38.9-13.6,77.3-27.1,116.2-40.7c0,2.5,0,4.3,0,6.1c0,85,0,170.1,0,255.1c0,2,0.1,4,0.2,6
		C263.8,587.5,264.5,587.6,265.2,587.6z"/>
	<path class="st0" d="M890.5,510.3c0-99.2,0-198,0-296.8c5.1-0.5,10.1-1.3,15.2-1.4c31.7-0.5,63.5-1.5,95.2-0.8
		c22.8,0.5,45.4,4.5,66.5,14.1c31.6,14.4,52.1,38.5,62.2,71.6c4.1,13.6,6.7,27.4,7,41.6c0.2,7.1,1,14.2,0.9,21.3
		c-0.1,19.2-2.8,38.1-9.1,56.4c-15.6,45.5-47.8,73.4-93,87.4c-26.7,8.3-54.2,9.2-81.9,8.5c-12.4-0.3-24.8-0.3-37.2-0.6
		C907.9,511.3,899.5,510.7,890.5,510.3z M947.8,461.8c9.2,0.6,18,1.9,26.9,1.7c10-0.2,20.1-1.1,29.9-3c25.5-4.9,45.6-18,58.3-41.2
		c8.9-16.2,11.5-34,12.6-52c0.4-6.7-0.1-13.5-1-20.2c-1.3-10.6-2.4-21.4-5.1-31.7c-6.5-25.2-22.2-42.8-47.4-50.3
		c-10.1-3-20.9-4.3-31.4-4.9c-14.1-0.8-28.4-0.2-42.8-0.2C947.8,327.2,947.8,394,947.8,461.8z"/>
	<path class="st0" d="M1663.3,212.6c54.1,0,107.8,0,161.7,0c0,15.9,0,31.8,0,48c-34.6,0-69.1,0-103.9,0c0,24.5,0,48.7,0,73.3
		c32.8,0,65.5,0,98.6,0c0,15.7,0,30.9,0,46.7c-32.7,0-65.6,0-98.7,0c0,27.1,0,53.7,0,80.7c34.5,0,69.1,0,104,0c0,16.6,0,32.8,0,49.2
		c-53.9,0-107.6,0-161.6,0C1663.3,411.3,1663.3,312.2,1663.3,212.6z"/>
	<path class="st1" d="M1346.8,510.5c-17.7,0-35.3,0-53.7,0c0.7-12,1.3-23.7,2-36.4c-5.2,10.5-11.8,18.8-20.7,25.3
		c-13.6,9.9-28.8,15.3-45.7,15.2c-9.3-0.1-18.6,0.4-27.9-2.7c-12.6-4.2-22.9-11-30.1-22.2c-8.5-13.5-9.8-28.3-7.5-43.6
		c4-26,20.6-42.2,43.1-53.2c14.9-7.3,30.7-11.8,47.4-13.2c11.3-1,22.6-1.9,34.5-2.9c0.1-9.4,1.7-19.4-2.2-28.8
		c-5-11.8-15.4-15.9-27.2-17.2c-27.2-2.9-52.4,3.6-77.4,16.3c-1.8-15.8-3.5-31.3-5.4-47.7c12.9-3.2,25.4-6.8,38.1-9.3
		c19-3.7,38.3-5,57.7-3.3c14.4,1.3,28.6,3.7,41.6,10.3c20,10.2,30.1,27.4,30.8,49.3c1.1,40.5,1.3,81,1.8,121.6
		c0.2,12.7,0.2,25.3,0.4,38C1346.5,507.4,1346.7,508.8,1346.8,510.5z M1288.1,413.3c-6.5,0.5-12.7,0.9-18.9,1.4
		c-6.2,0.6-12.5,0.8-18.5,2.2c-9.3,2.1-18.4,5.1-25.9,11.6c-13.2,11.6-10.5,35.1,5.2,41.1c9.4,3.6,18.7,2.5,28-0.8
		C1275.3,462.4,1291.6,439.5,1288.1,413.3z"/>
	<path class="st1" d="M2532,409.8c-46.8,0-92.2,0-137.6,0c0.1,22.9,5.6,44.9,30.8,56.3c5.5,2.5,11.8,3.9,17.9,4.3
		c22.2,1.5,44-1.1,65.1-8.6c3.4-1.2,6.8-2.6,11-4.1c1.8,14.3,3.5,28.5,5.4,43.8c-11.7,3.1-23,6.1-34.4,9.1
		c-20.9,5.5-42.4,5.2-63.5,3.6c-30.9-2.4-65.4-16.4-80.8-57.1c-4.4-11.8-6.9-23.9-7.8-36.3c-0.6-8.9-1.6-17.9-0.9-26.7
		c2.8-36.4,13.9-69,45.4-91.2c11.8-8.3,25-13.8,39.6-14.9c10.1-0.8,20.3-1.9,30.2-1c33.5,2.9,58.7,18.6,71.8,50.5
		c4.7,11.4,7.9,23.3,7.7,35.8C2531.9,385.3,2532,397.2,2532,409.8z M2475.7,371.5c1.9-24.6-9.8-43.6-39.3-43.5
		c-23,0.1-39.5,21.3-40.3,43.5C2422.5,371.5,2448.9,371.5,2475.7,371.5z"/>
	<path class="st0" d="M2262.3,335.8c0,33.4-0.3,66.8,0.1,100.3c0.1,6.7,1.5,13.6,3.7,19.9c2.9,8.5,10.5,11.8,18.9,11.5
		c10-0.3,20-1.7,30.4-2.7c0,14.3,0,29.3,0,45c-9.3,1.5-18.8,3.1-28.4,4.5c-16.4,2.4-32.9,1.9-48.7-2.9c-16.2-5-25.4-16.7-29.3-33.2
		c-2.7-11.4-2.9-22.9-2.9-34.4c-0.1-34.4,0-68.8,0-103.3c0-1.8,0-3.6,0-5.9c-12.6,0-24.7,0-36.8,0c-0.3-0.3-0.7-0.5-1-0.8
		c0-13.9,0-27.9,0-42.3c12.3,0,24.6,0,37.2,0c0-23,0-45.4,0-67.9c19-5,37.7-9.9,56.8-14.9c0,27.8,0,55,0,82.8c17.9,0,35.5,0,53.3,0
		c0,14.6,0,28.7,0,43.5c-17.6,0-35,0-52.4,0C2262.8,335.2,2262.6,335.5,2262.3,335.8z"/>
	<path class="st2" d="M2139.6,290.8c0,14.3,0,28.3,0,43.5c-5-1-9.1-2-13.3-2.5c-7.7-0.9-15.3-1.7-23-1.9c-6.6-0.2-13.3-0.2-19.7,1
		c-9.5,1.7-15.9,7.6-18,17.3c-1.4,6.5,1.2,12.4,6.1,16.4c4.9,4,10.7,7.3,16.5,10c9.8,4.5,20,8,29.8,12.3
		c10.1,4.4,19.4,10.3,26.5,19.1c6.5,8,9.5,17.3,10.9,27.4c2.3,16.6-0.7,31.9-10.2,45.7c-10.4,15.1-25.3,24.1-42.5,29.5
		c-12.4,3.9-25.1,6.6-38.3,6.1c-9.6-0.4-19.3,0.3-29-0.2c-8-0.4-15.9-1.9-24.2-3c0.6-15.6,1.2-30.9,1.7-45.1c16.9,1.8,33.4,4.3,50,5
		c7,0.3,14.7-2.1,21.2-5.2c15.6-7.3,16.9-26.4,2.4-35.8c-7.1-4.6-15.5-7.1-23.3-10.6c-11.1-5.1-22.7-9.4-33.1-15.7
		c-13-7.9-19.4-20.6-22-35.6c-6.5-36.7,16.5-64.9,48.4-75.6c11.9-4,24.2-6.5,36.8-5.9c14.8,0.7,29.5,2,44.3,3
		C2138.4,290,2139.1,290.6,2139.6,290.8z"/>
	<path class="st2" d="M1519.6,291.1c-0.7,14.6-1.4,28.9-2.1,43.4c-7.7-1.5-15-3.5-22.4-4.1c-12.3-0.9-24.7-2.5-36.7,1.7
		c-9.1,3.2-14.3,11.1-13.9,20.2c0.2,5.6,2.9,10.3,7.3,13.5c4.8,3.4,10.1,6.4,15.5,8.9c9.5,4.3,19.3,7.7,28.8,12
		c5.6,2.5,11,5.6,16,9.1c19.4,14,24.7,33.6,21.5,56.3c-4.5,32.8-26.8,48.3-55.8,57.5c-21,6.7-42.6,4.8-64,4.7
		c-7.7,0-15.4-1.9-22.7-2.9c0-15.8,0-31,0-46.4c9.8,1.8,18.9,3.5,28.1,5.1c13.6,2.3,27.2,2.7,40.3-2.2c7.7-2.9,13.5-7.8,14.9-16.3
		c1.7-10.2-2.3-18.2-11.5-22.7c-8.4-4.2-17.3-7.1-25.8-11c-10-4.6-20.5-8.7-29.5-14.9c-14.2-9.6-20.7-24.3-21-41.3
		c-0.5-34.4,15.9-57.3,48.5-68.7c11.6-4.1,23.5-5.8,35.7-6.2c15.4-0.4,30.7,0.7,45.8,3.1C1517.5,290.1,1518.2,290.5,1519.6,291.1z"
		/>
	<path class="st0" d="M1991.6,286.3c-0.9,18.5-1.8,36.8-2.7,55.3c-5.3-0.2-10.5-0.6-15.7-0.7c-12.4-0.3-22.3,4.8-29.8,14.5
		c-7.4,9.6-11.8,20.7-12.9,32.6c-1.5,15.6-2.2,31.3-2.4,47c-0.4,23.5-0.1,46.9-0.1,70.4c0,1.6,0,3.3,0,5.2c-18.9,0-37.5,0-56.3,0
		c0-72.9,0-145.7,0-218.7c17.8,0,35.4,0,53.8,0c-1.3,13.9-2.5,27.4-3.7,40.9c0.2,0.2,0.5,0.3,0.7,0.5c0.8-1.5,1.7-3,2.5-4.6
		c7.4-16,17.7-29.3,34-37C1969.1,286.8,1979,285.1,1991.6,286.3z"/>
	<path class="st3" d="M2168.1,333.8c0.3,0.3,0.7,0.5,1,0.8C2168.8,334.3,2168.5,334.1,2168.1,333.8z"/>
	<path class="st4" d="M2262.3,335.8c0.3-0.3,0.5-0.6,0.8-0.9C2262.8,335.2,2262.6,335.5,2262.3,335.8z"/>
	<path class="st5" d="M263.1,587.5c0.7,0.1,1.4,0.1,2.2,0.2C264.5,587.6,263.8,587.5,263.1,587.5z"/>
</g>
</svg>
