<?xml version="1.0" encoding="utf-8"?>
<!-- Generator: Adobe Illustrator 27.7.0, SVG Export Plug-In . SVG Version: 6.00 Build 0)  -->
<svg version="1.1" id="Layer_1" xmlns="http://www.w3.org/2000/svg" xmlns:xlink="http://www.w3.org/1999/xlink" x="0px" y="0px"
	 viewBox="0 0 198.4 198.4" style="enable-background:new 0 0 198.4 198.4;" xml:space="preserve">
<style type="text/css">
	.st0{fill:#181818;}
</style>
<g>
	<path class="st0" d="M99.7,80.7c-10.1,0-18.4,8.2-18.4,18.4c0,10.1,8.2,18.3,18.4,18.3s18.3-8.2,18.3-18.3
		C118,89,109.8,80.7,99.7,80.7"/>
	<path class="st0" d="M130,75.3c-3.8,0-6.8-3.1-6.8-6.8s3.1-6.8,6.8-6.8s6.8,3.1,6.8,6.8S133.8,75.3,130,75.3 M99.7,127.7
		c-15.8,0-28.6-12.8-28.6-28.6c0-15.8,12.8-28.6,28.6-28.6c15.8,0,28.6,12.8,28.6,28.6C128.3,114.9,115.5,127.7,99.7,127.7
		 M122.4,51.9H76c-13.2,0-24,10.8-24,24v46.4c0,13.2,10.8,24,24,24h46.4c13.2,0,24-10.8,24-24V75.9
		C146.4,62.6,135.7,51.9,122.4,51.9"/>
	<path class="st0" d="M157.4,122.3c0,19.3-15.7,34.9-34.9,34.9H76c-19.3,0-34.9-15.7-34.9-34.9V75.9C41,56.6,56.7,40.9,76,40.9h46.4
		c19.3,0,34.9,15.7,34.9,34.9V122.3z M99.2,0C44.4,0,0,44.4,0,99.2c0,54.8,44.4,99.2,99.2,99.2s99.2-44.4,99.2-99.2
		C198.4,44.4,154,0,99.2,0"/>
</g>
</svg>
